<svg xmlns="http://www.w3.org/2000/svg" version="1.1" xmlns:xlink="http://www.w3.org/1999/xlink" xmlns:svgjs="http://svgjs.dev/svgjs" width="2000" height="1247" viewBox="0 0 2000 1247"><g transform="matrix(1,0,0,1,-1.2121212121212466,0.504858299595071)"><svg viewBox="0 0 396 247" data-background-color="#051622" preserveAspectRatio="xMidYMid meet" height="1247" width="2000" xmlns="http://www.w3.org/2000/svg" xmlns:xlink="http://www.w3.org/1999/xlink"><g id="tight-bounds" transform="matrix(1,0,0,1,0.2400000000000091,-0.09999999999999432)"><svg viewBox="0 0 395.52 247.2" height="247.2" width="395.52"><g><svg></svg></g><g><svg viewBox="0 0 395.52 247.2" height="247.2" width="395.52"><g transform="matrix(1,0,0,1,75.54432,105.45432651142917)"><svg viewBox="0 0 244.43135999999998 36.291346977141636" height="36.291346977141636" width="244.43135999999998"><g><svg viewBox="0 0 244.43135999999998 36.291346977141636" height="36.291346977141636" width="244.43135999999998"><g><svg viewBox="0 0 244.43135999999998 36.291346977141636" height="36.291346977141636" width="244.43135999999998"><g><svg viewBox="0 0 244.43135999999998 36.291346977141636" height="36.291346977141636" width="244.43135999999998"><g id="textblocktransform"><svg viewBox="0 0 244.43135999999998 36.291346977141636" height="36.291346977141636" width="244.43135999999998" id="textblock"><g><svg viewBox="0 0 244.43135999999998 36.291346977141636" height="36.291346977141636" width="244.43135999999998"><g transform="matrix(1,0,0,1,0,0)"><svg width="244.43135999999998" viewBox="1.55 -34.35 231.99 34.75" height="36.291346977141636" data-palette-color="#3cbcc3"><g class="wordmark-text-0" data-fill-palette-color="primary" id="text-0"><path d="M19.7-10.65L16.6 0 10.4 0 1.55-33.7 6.9-33.7 10.05-21.25 13.75-5.45Q16-13.85 18.15-21.25L18.15-21.25 21.6-33.2 26.15-33.2 29.7-21.2 34.25-5.35Q36.1-14.45 37.7-21.2L37.7-21.2 40.65-33.7 45.85-33.7 37.6 0 31.45 0 28.25-10.65 23.9-25.7Q22.75-20.95 19.7-10.65L19.7-10.65ZM70.45-4.3L70.45 0 51 0 51-33.7 70.2-33.7 70.2-29.4 56.15-29.4 56.15-19 68.6-19 68.6-14.7 56.15-14.7 56.15-4.3 70.45-4.3ZM89.65 0L89.65 0 76.7 0 76.7-33.7 87.75-33.7Q93.05-33.7 96.1-31.23 99.15-28.75 99.15-24.7L99.15-24.7Q99.15-21.9 97.57-19.8 96-17.7 93.55-17.1L93.55-17.1Q96.3-16.6 98.17-14.55 100.05-12.5 100.05-9.05L100.05-9.05Q100.05-5.05 97.32-2.53 94.6 0 89.65 0ZM87.35-29.45L87.35-29.45 81.85-29.45 81.85-19.1 86.5-19.1Q90.25-19.1 92.07-20.63 93.9-22.15 93.9-24.6L93.9-24.6Q93.9-26.75 92.27-28.1 90.65-29.45 87.35-29.45ZM87.95-14.9L87.95-14.9 81.85-14.9 81.85-4.25 88.45-4.25Q94.8-4.25 94.8-9.5L94.8-9.5Q94.8-12.05 93.07-13.48 91.35-14.9 87.95-14.9Z" fill="#3cbcc3" data-fill-palette-color="primary"></path><path d="M138.2-4.25L138.2 0 114.4 0 114.4-4.05 131.4-29.45 114.65-29.45 114.65-33.7 137.5-33.7 137.5-29.75 120.45-4.25 138.2-4.25ZM170-29.63Q174.14-24.9 174.14-17 174.14-9.1 169.97-4.35 165.8 0.4 158.7 0.4L158.7 0.4Q151.65 0.4 147.42-4.35 143.2-9.1 143.2-17L143.2-17Q143.2-24.85 147.4-29.6 151.6-34.35 158.65-34.35L158.65-34.35Q165.85-34.35 170-29.63ZM151.27-26.18Q148.6-22.8 148.6-17 148.6-11.2 151.35-7.8 154.1-4.4 158.7-4.4L158.7-4.4Q163.45-4.4 166.1-7.75 168.75-11.1 168.75-17L168.75-17Q168.75-22.85 166.07-26.2 163.4-29.55 158.65-29.55L158.65-29.55Q153.95-29.55 151.27-26.18ZM185.24-14.1L185.24 0 180.09 0 180.09-33.7 186.19-33.7 194.49-19.6Q196.79-15.65 198.67-12.3 200.54-8.95 201.24-7.6L201.24-7.6 201.94-6.2Q201.64-10.75 201.64-19.55L201.64-19.55 201.64-33.7 206.79-33.7 206.79 0 200.69 0 192.34-14.05Q190.09-17.85 188.22-21.23 186.34-24.6 185.59-26.1L185.59-26.1 184.84-27.55Q185.24-22.55 185.24-14.1L185.24-14.1ZM233.54-4.3L233.54 0 214.09 0 214.09-33.7 233.29-33.7 233.29-29.4 219.24-29.4 219.24-19 231.69-19 231.69-14.7 219.24-14.7 219.24-4.3 233.54-4.3Z" fill="#ffffff" data-fill-palette-color="secondary"></path></g></svg></g></svg></g></svg></g></svg></g></svg></g></svg></g></svg></g><path d="M180.695 99.454L180.695 36.456 6.406 36.456 6.406 210.744 180.695 210.744 180.695 147.746 177.423 147.746 177.423 207.472 9.679 207.472 9.679 39.728 177.423 39.728 177.423 99.454Z" fill="#3cbcc3" stroke="transparent" data-fill-palette-color="primary"></path></svg></g><defs></defs></svg><rect width="395.52" height="247.2" fill="none" stroke="none" visibility="hidden"></rect></g></svg></g></svg>